HIERARCHY
ROOT Hips
{
	OFFSET 0.000000 0.000000 0.000000
	CHANNELS 6 Xposition Yposition Zposition Zrotation Yrotation Xrotation 
	JOINT LHipJoint
	{
		OFFSET 0.000000 0.000000 0.000000
		CHANNELS 3 Zrotation Yrotation Xrotation
		JOINT LeftUpLeg
		{
			OFFSET 1.363060 -1.794630 0.839290
			CHANNELS 3 Zrotation Yrotation Xrotation
			JOINT LeftLeg
			{
				OFFSET 2.448110 -6.726130 0.000000
				CHANNELS 3 Zrotation Yrotation Xrotation
				JOINT LeftFoot
				{
					OFFSET 2.562200 -7.039590 0.000000
					CHANNELS 3 Zrotation Yrotation Xrotation
					JOINT LeftToeBase
					{
						OFFSET 0.157640 -0.433110 2.322550
						CHANNELS 3 Zrotation Yrotation Xrotation
						End Site
						{
							OFFSET 0.000000 0.000000 0.000000
						}
					}
				}
			}
		}
	}
	JOINT RHipJoint
	{
		OFFSET 0.000000 0.000000 0.000000
		CHANNELS 3 Zrotation Yrotation Xrotation
		JOINT RightUpLeg
		{
			OFFSET -1.305520 -1.794630 0.839290
			CHANNELS 3 Zrotation Yrotation Xrotation
			JOINT RightLeg
			{
				OFFSET -2.542530 -6.985550 0.000000
				CHANNELS 3 Zrotation Yrotation Xrotation
				JOINT RightFoot
				{
					OFFSET -2.568260 -7.056230 0.000000
					CHANNELS 3 Zrotation Yrotation Xrotation
					JOINT RightToeBase
					{
						OFFSET -0.164730 -0.452590 2.363150
						CHANNELS 3 Zrotation Yrotation Xrotation
						End Site
						{
							OFFSET 0.000000 0.000000 0.000000
						}
					}
				}
			}
		}
	}
	JOINT LowerBack
	{
		OFFSET 0.000000 0.000000 0.000000
		CHANNELS 3 Zrotation Yrotation Xrotation
		JOINT Spine
		{
			OFFSET 0.028270 2.035590 -0.193380
			CHANNELS 3 Zrotation Yrotation Xrotation
			JOINT Spine1
			{
				OFFSET 0.056720 2.048850 -0.042750
				CHANNELS 3 Zrotation Yrotation Xrotation
				JOINT Neck
				{
					OFFSET 0.000000 0.000000 0.000000
					CHANNELS 3 Zrotation Yrotation Xrotation
					JOINT Neck1
					{
						OFFSET -0.054170 1.746240 0.172020
						CHANNELS 3 Zrotation Yrotation Xrotation
						JOINT Head
						{
							OFFSET 0.104070 1.761360 -0.123970
							CHANNELS 3 Zrotation Yrotation Xrotation
							End Site
							{
								OFFSET 0.000000 0.000000 0.000000
							}
						}
					}
				}
				JOINT LeftShoulder
				{
					OFFSET 0.000000 0.000000 0.000000
					CHANNELS 3 Zrotation Yrotation Xrotation
					JOINT LeftArm
					{
						OFFSET 3.362410 1.200890 -0.311210
						CHANNELS 3 Zrotation Yrotation Xrotation
						JOINT LeftForeArm
						{
							OFFSET 4.983000 -0.000000 -0.000000
							CHANNELS 3 Zrotation Yrotation Xrotation
							JOINT LeftHand
							{
								OFFSET 3.483560 -0.000000 -0.000000
								CHANNELS 3 Zrotation Yrotation Xrotation
								JOINT LeftFingerBase
								{
									OFFSET 0.000000 0.000000 0.000000
									CHANNELS 3 Zrotation Yrotation Xrotation
									JOINT LeftHandIndex1
									{
										OFFSET 0.715260 -0.000000 -0.000000
										CHANNELS 3 Zrotation Yrotation Xrotation
										End Site
										{
											OFFSET 0.000000 0.000000 0.000000
										}
									}
								}
								JOINT LThumb
								{
									OFFSET 0.000000 0.000000 0.000000
									CHANNELS 3 Zrotation Yrotation Xrotation
									End Site
									{
										OFFSET 0.000000 0.000000 0.000000
									}
								}
							}
						}
					}
				}
				JOINT RightShoulder
				{
					OFFSET 0.000000 0.000000 0.000000
					CHANNELS 3 Zrotation Yrotation Xrotation
					JOINT RightArm
					{
						OFFSET -3.136600 1.374050 -0.404650
						CHANNELS 3 Zrotation Yrotation Xrotation
						JOINT RightForeArm
						{
							OFFSET -5.241900 -0.000000 -0.000000
							CHANNELS 3 Zrotation Yrotation Xrotation
							JOINT RightHand
							{
								OFFSET -3.444170 -0.000000 -0.000000
								CHANNELS 3 Zrotation Yrotation Xrotation
								JOINT RightFingerBase
								{
									OFFSET 0.000000 0.000000 0.000000
									CHANNELS 3 Zrotation Yrotation Xrotation
									JOINT RightHandIndex1
									{
										OFFSET -0.622530 -0.000000 -0.000000
										CHANNELS 3 Zrotation Yrotation Xrotation
										End Site
										{
											OFFSET 0.000000 0.000000 0.000000
										}
									}
								}
								JOINT RThumb
								{
									OFFSET 0.000000 0.000000 0.000000
									CHANNELS 3 Zrotation Yrotation Xrotation
									End Site
									{
										OFFSET 0.000000 0.000000 0.000000
									}
								}
							}
						}
					}
				}
			}
		}
	}
}
MOTION
Frames: 11
Frame Time: 0.033333
2.414132 17.596209 -27.936991 -1.003123 12.040578 9.795645 -18.183906 8.560564 -2.908605 -10.500036 -13.598720 -0.581412 7.152419 -5.411698 -3.595775 1.574897 5.763092 4.871548 -1.636606 0.427865 -26.164756 12.808551 -14.984084 8.170866 10.552014 -2.145769 -33.443597 0.427028 -5.282451 20.617290 0.107303 4.514814 -0.679697 1.312112 -0.030763 -63.706024 4.546043 -12.847319 -24.758879 -5.130170 3.724045 -3.974897 -6.054015 2.622301 6.867227 11.661511 -8.728515 -15.810588 -2.929996 -0.343841 -1.919906 0.081350 0.007617 0.072582 5.486985 19.791002 14.700645 -6.167350 -38.979326 -55.878236 -11.834385 -47.942057 9.251551 17.022031 -2.862478 -0.567486 -0.438247 0.242217 0.039937 -0.003542 -0.070954 -0.006563 -0.065233 0.034345 -0.117453 23.085694 -36.147709 26.987430 52.538625 23.632272 2.924209 -21.792109 71.563738 -14.522168 -9.351785 9.725905 -1.007191 0.037508 -0.613486 -0.071058 -0.077347 0.056334 -0.011943 -0.052263 0.095678 -0.039650 
2.489271 17.583409 -27.470352 -0.933276 12.581190 10.011568 -17.561451 7.739394 -3.472196 -10.546518 -10.197926 -2.046812 5.217909 -5.508340 1.365710 2.014018 2.740708 1.665311 -2.004808 0.428126 -26.594893 12.555828 -12.262280 9.145454 6.211363 1.546732 -36.355602 -0.127301 -6.777700 31.891658 0.527999 6.197374 0.254957 1.170729 -0.066155 -62.718592 2.719880 -13.417136 -23.128058 -4.623363 3.752211 -4.459425 -6.665388 1.470326 6.322755 11.437637 -8.966704 -14.782470 -3.172369 -0.379541 -1.871937 0.094739 0.023205 0.071988 5.489466 20.159371 13.120233 -7.633869 -39.657873 -53.209201 -14.055016 -48.836948 10.885646 17.211592 -2.781005 -0.555864 -0.433911 0.182922 0.044762 0.011186 -0.066287 -0.017804 -0.062629 0.042044 -0.104908 20.129096 -34.223092 33.301904 54.793051 24.936448 4.759266 -18.580009 71.539129 -11.913465 -9.366195 9.663084 -1.001889 0.102536 -0.670918 -0.063566 -0.067212 0.053280 -0.015634 -0.048050 0.101977 -0.039279 
2.553317 17.594757 -27.026270 -1.106970 12.845642 9.440430 -17.439076 7.245181 -3.726716 -10.585508 -7.929555 -2.762895 5.175113 -5.570918 6.420379 2.013843 1.575671 -0.865090 -2.039040 0.354415 -26.976755 12.382510 -8.538824 9.658772 1.517811 2.561700 -41.545581 3.341997 -5.710484 47.271103 1.545737 6.776438 10.994881 0.597226 -0.180803 -59.440314 1.794792 -12.749767 -21.643850 -4.811698 2.689324 -4.314968 -6.913682 1.534907 5.109761 11.387183 -9.357299 -14.002908 -3.390320 -0.403315 -1.516517 0.106257 0.019492 0.074916 3.860403 17.915661 12.416883 -9.413126 -39.357808 -50.021128 -10.384941 -48.744622 8.150909 17.991709 -2.461527 -0.517794 -0.403302 0.280404 0.044486 0.030140 -0.054494 -0.027467 -0.071807 0.056538 -0.085691 21.528712 -33.357366 36.105420 56.024922 26.427589 4.928679 -15.189527 65.739015 -9.292597 -9.257835 9.482841 -0.985586 0.129574 -0.743211 -0.047622 -0.058623 0.050582 -0.020853 -0.054966 0.100045 -0.048276 
2.609888 17.629437 -26.602098 -1.732222 12.287141 9.853329 -17.379683 5.919637 -3.794091 -8.718181 -4.651738 -4.826256 2.764174 -7.049010 10.822803 1.859559 2.159363 -2.781197 -2.032022 0.313205 -27.080752 13.497002 -6.786789 8.915282 -1.173830 1.551309 -48.996520 6.268698 -7.510410 58.275285 0.677782 2.267753 32.199412 0.348289 -0.232232 -56.213179 3.469267 -16.829623 -21.245337 -5.028415 2.515733 -4.143570 -8.411592 2.296631 3.621836 11.760949 -9.171339 -12.571732 -3.437358 -0.425486 -1.318823 0.103671 0.021077 0.070381 2.069980 16.576230 11.586058 -13.408249 -39.292590 -46.853435 -8.872774 -46.783101 6.153619 17.785369 -2.403095 -0.507716 -0.399991 0.418757 0.049141 0.028703 -0.039780 -0.037568 -0.080154 0.067255 -0.055286 23.942564 -30.166522 33.152124 58.593270 25.827767 7.037431 -12.597561 61.579963 -6.939590 -8.972594 9.698816 -0.988082 0.115904 -0.817420 -0.040916 -0.047001 0.050076 -0.038328 -0.052240 0.095515 -0.062170 
2.667458 17.686698 -26.197670 -1.451660 12.401818 9.522551 -17.822116 4.703476 -3.147639 -7.205881 -3.381005 -5.401893 0.474566 -7.716374 14.274952 1.637413 3.865302 -3.458670 -1.726080 0.209739 -27.276966 12.901715 -5.536288 9.391671 -0.682940 -1.467369 -54.242393 7.694952 -6.295995 61.182345 1.045268 -3.952279 45.716079 0.118077 -0.256257 -52.370246 2.969488 -17.137822 -19.878372 -4.899229 1.427373 -4.116273 -8.388012 1.769706 4.242757 12.120665 -9.412236 -11.148484 -3.433438 -0.415694 -0.904753 0.098922 0.023811 0.053463 0.377459 12.950632 10.747051 -19.456522 -38.512209 -41.745607 -6.173731 -45.752324 3.336232 17.887137 -2.819791 -0.558024 -0.394735 0.358292 0.045884 0.025025 -0.027564 -0.040898 -0.078327 0.072975 -0.026455 25.549795 -28.242890 23.928584 60.700408 23.367639 7.026522 -10.665034 59.399818 -5.646360 -8.961054 10.184535 -1.044831 0.131645 -0.730777 -0.027753 -0.042353 0.048035 -0.045514 -0.043397 0.089524 -0.062299 
2.730654 17.762425 -25.816242 -2.867919 10.694920 10.517606 -16.968866 3.977628 -2.222204 -5.419882 -1.168131 -6.510051 -1.653473 -8.528879 13.293561 1.736444 5.037651 -2.732320 -1.474351 0.112487 -27.728300 13.545122 -4.947342 9.856085 -0.894282 -1.497825 -58.520711 7.857632 -5.848693 56.916352 0.722772 -6.855213 46.172179 0.074167 -0.231748 -50.099787 2.781894 -14.262129 -17.805641 -4.555038 -0.784133 -3.865105 -8.130704 0.117350 4.292500 13.000053 -9.811755 -10.838361 -3.227015 -0.392196 -0.843358 0.083321 0.034752 0.038813 0.109686 11.196278 10.637245 -24.524169 -38.752580 -38.985052 -7.763138 -46.414921 3.534364 17.352485 -3.431578 -0.634263 -0.427664 0.335141 0.046049 0.014313 -0.018483 -0.044585 -0.072461 0.076146 0.007339 24.691302 -26.418969 11.324747 62.625814 19.312715 8.074058 -7.653468 59.584504 -3.761049 -8.553792 10.670267 -1.048598 0.159654 -0.670174 -0.025261 -0.035686 0.055913 -0.053566 -0.027649 0.087090 -0.063472 
2.786497 17.848390 -25.456221 -2.475000 9.072546 10.543365 -17.885510 4.329530 -0.442004 -4.730070 1.040666 -6.422910 -1.869974 -10.622399 10.859760 1.301562 6.445057 -1.086100 -1.181282 0.017421 -28.678737 13.098965 -4.774464 10.417533 1.159535 -1.615553 -60.390173 2.998265 -5.091600 47.985914 -0.800358 -7.018049 26.756138 -0.051641 -0.171799 -48.949109 3.112085 -14.429316 -15.757838 -3.461069 -1.258305 -3.361761 -8.531752 -0.494137 4.476158 12.776051 -11.311463 -11.095573 -3.058035 -0.380143 -0.811239 0.071842 0.035370 0.026473 0.900702 9.614678 10.691820 -31.055079 -39.239175 -36.218348 -9.076140 -49.700538 4.595027 16.403834 -3.359644 -0.579321 -0.436914 0.376139 0.032821 0.009343 -0.021706 -0.041311 -0.065634 0.077476 0.033759 21.746853 -25.883163 5.078085 64.869835 16.091453 7.612155 -6.187462 61.251073 -3.386279 -8.115055 10.842656 -1.011221 0.135856 -0.567996 -0.016685 -0.019640 0.051862 -0.047297 -0.023257 0.087743 -0.047322 
2.850958 17.929237 -25.112509 -3.273876 7.825948 10.717842 -17.849350 5.412436 1.600541 -3.142265 2.299783 -6.570378 -3.280246 -12.548349 7.540886 1.509001 7.538007 1.353184 -0.870317 -0.037898 -30.333795 13.933364 -5.706651 9.745236 3.280825 -1.497063 -56.834026 1.550737 -3.198582 29.410193 -1.783624 -4.717393 9.177804 -0.278137 -0.072258 -49.660744 4.815316 -15.515181 -13.756867 -4.079786 -1.101862 -3.099476 -7.547644 -0.901033 4.204080 12.849954 -13.038917 -11.784444 -2.977214 -0.356643 -0.836523 0.053785 0.041647 0.009504 2.009090 7.986931 10.591173 -38.512396 -38.975529 -31.187374 -11.708421 -52.519201 6.083113 14.951729 -3.623985 -0.564626 -0.477794 0.312586 0.020059 -0.003964 -0.028888 -0.033169 -0.048468 0.070577 0.063412 20.392964 -26.222993 -0.486992 65.257016 13.394428 7.176678 -4.635469 63.557901 -2.591359 -7.197141 10.804852 -0.888844 0.184978 -0.475921 -0.013924 -0.007294 0.050156 -0.045006 -0.019155 0.085592 -0.034501 
2.906078 18.004619 -24.780548 -3.273303 7.758762 10.276608 -17.977352 5.941816 4.130416 -2.163932 3.146860 -6.274679 -4.069413 -13.597993 4.252792 1.339598 7.956933 4.319224 -0.744137 -0.045076 -32.913901 13.518321 -5.401843 10.107537 3.663790 0.249866 -51.256987 2.065194 -0.320601 13.040805 -1.632771 -3.956488 6.382090 -0.326178 0.004760 -49.961106 4.665772 -14.762151 -11.228034 -3.533400 -2.260151 -3.154276 -6.838279 -0.297291 3.627683 12.245502 -14.743669 -11.912278 -2.912423 -0.333705 -0.681474 0.039871 0.029044 0.002979 2.931478 5.533336 9.964430 -46.700512 -39.289783 -23.483376 -12.960881 -55.036142 7.552816 13.586354 -3.935382 -0.552486 -0.454815 0.348925 0.011978 -0.014383 -0.032677 -0.034615 -0.044661 0.077771 0.070355 18.135220 -27.899624 -0.286434 64.401080 11.496701 6.336902 -2.924177 63.938377 -1.605786 -6.708008 10.533027 -0.798002 0.146796 -0.445996 -0.014323 -0.001118 0.040578 -0.043389 -0.009613 0.077177 -0.024091 
2.947251 18.076093 -24.459087 -3.547045 6.862354 10.802648 -17.762173 6.498510 6.507589 -1.098190 3.263791 -7.051085 -5.599574 -13.404031 1.106148 1.335212 8.311176 7.350573 -0.475700 -0.057904 -35.197915 12.877859 -4.379798 10.000021 4.644923 1.807794 -45.065863 2.167770 1.988484 1.480295 -1.309736 -4.042710 5.730260 -0.440117 0.080244 -50.740314 4.519502 -12.888349 -9.054917 -2.970880 -3.181307 -3.959606 -6.368842 -1.318080 3.173748 12.022168 -16.404463 -11.814686 -2.744160 -0.281598 -0.712367 0.019377 0.020851 -0.007938 3.691835 3.889990 8.941931 -56.392248 -36.047416 -13.865070 -13.155897 -57.239708 7.581985 12.164821 -4.382649 -0.549295 -0.430544 0.378971 0.001008 -0.032713 -0.034522 -0.030427 -0.036027 0.081702 0.072059 17.028571 -28.949971 1.182368 62.869904 11.119467 4.270006 -2.614893 63.903560 -1.925589 -6.164132 10.244764 -0.694695 0.144079 -0.440486 -0.012590 0.005277 0.033624 -0.044373 0.004521 0.071536 -0.013647 
2.971713 18.142202 -24.143827 -4.227801 6.069771 11.749889 -18.074985 6.207722 7.685788 -0.132542 4.155111 -8.085746 -5.615465 -13.496799 -0.067906 1.159364 9.127944 8.848411 -0.536736 -0.049678 -35.911443 12.218100 -4.149889 9.752550 5.818914 4.314769 -40.755455 2.210049 3.060822 -5.560794 -1.212992 -3.351534 3.297020 -0.395689 0.124454 -50.451459 5.972394 -12.877028 -8.292263 -2.527886 -2.845990 -3.962400 -6.914206 -1.662510 2.691016 12.307432 -17.169351 -11.894522 -2.647806 -0.254172 -0.647307 0.000941 0.007925 -0.013003 4.715426 3.026075 7.904073 -63.098410 -33.580561 -5.727871 -11.894348 -59.627943 7.071619 10.830234 -4.636111 -0.529432 -0.362114 0.375136 -0.003253 -0.044322 -0.035481 -0.015438 -0.028154 0.091237 0.068647 17.858367 -28.991469 2.954442 60.404197 10.237316 2.866163 -1.942584 64.510683 -1.380219 -5.987253 9.708762 -0.633572 0.145122 -0.394116 -0.012399 -0.003081 0.017532 -0.049558 0.014588 0.063473 -0.002754 
